<svg width="217" height="218" viewBox="0 0 217 218" fill="none" xmlns="http://www.w3.org/2000/svg">
<g clip-path="url(#clip0_463_78)">
<path d="M153.295 52.4497H93.7826V71.1387H101.222V59.9253H153.295C155.527 59.9253 157.015 61.4204 157.015 63.6631V104.779C157.015 107.021 155.527 108.517 153.295 108.517H104.941V134.681H85.2276L71.4653 145.521V134.681H60.3067C58.0749 134.681 56.5871 133.186 56.5871 130.943V89.8276C56.5871 87.5849 58.0749 86.0898 60.3067 86.0898H108.661V78.6142H60.3067C53.9834 78.6142 49.148 83.4734 49.148 89.8276V130.943C49.148 137.298 53.9834 142.157 60.3067 142.157H64.0262V161.219L87.4594 142.157H112.38V115.992H153.295C159.619 115.992 164.454 111.133 164.454 104.779V63.6631C164.454 57.3088 159.619 52.4497 153.295 52.4497Z" fill="#E6CCB2"/>
<path d="M64.7701 126.832H73.697L75.9288 120.851H87.4593L89.6911 126.832H98.618L85.9715 93.5654H77.0446L64.7701 126.832ZM81.5081 102.91L85.2276 114.497H77.7885L81.5081 102.91Z" fill="#E6CCB2"/>
<path d="M116.1 104.779C120.191 104.779 125.771 103.657 130.978 101.041C136.185 103.657 142.137 104.779 145.856 104.779V97.3032C145.856 97.3032 142.137 97.3032 138.045 95.8081C142.509 91.3227 145.856 84.5947 145.856 74.8765V71.1387H134.698V63.6631H127.259V71.1387H116.1V78.6142H138.045C137.301 85.3423 134.326 89.4538 130.978 92.0703C128.746 90.2014 126.515 87.5849 125.027 84.2209H117.216C118.704 89.0801 120.935 92.8178 123.911 95.8081C120.191 97.3032 116.844 97.3032 116.1 97.3032V104.779Z" fill="#E6CCB2"/>
</g>
<path d="M214.148 108.516C214.148 167.079 166.908 214.533 108.661 214.533C50.4136 214.533 3.17398 167.079 3.17398 108.516C3.17398 49.9537 50.4136 2.5 108.661 2.5C166.908 2.5 214.148 49.9537 214.148 108.516Z" stroke="#E6CCB2" stroke-width="5"/>
<defs>
<clipPath id="clip0_463_78">
<rect width="133.904" height="134.56" fill="white" transform="translate(41.7089 41.2363)"/>
</clipPath>
</defs>
</svg>
