<svg width="217" height="217" viewBox="0 0 217 217" fill="none" xmlns="http://www.w3.org/2000/svg">
<path d="M144.136 152.21C149.115 152.21 153.135 148.185 153.135 143.2C153.135 138.214 149.115 134.189 144.136 134.189C139.156 134.189 135.137 138.214 135.137 143.2C135.137 148.185 139.156 152.21 144.136 152.21ZM153.135 98.1493H138.136V113.166H164.893L153.135 98.1493ZM72.1445 152.21C77.1238 152.21 81.1434 148.185 81.1434 143.2C81.1434 138.214 77.1238 134.189 72.1445 134.189C67.1651 134.189 63.1455 138.214 63.1455 143.2C63.1455 148.185 67.1651 152.21 72.1445 152.21ZM156.134 89.1393L174.132 113.166V143.2H162.134C162.134 153.171 154.094 161.22 144.136 161.22C134.177 161.22 126.138 153.171 126.138 143.2H90.1423C90.1423 153.171 82.1032 161.22 72.1445 161.22C62.1857 161.22 54.1466 153.171 54.1466 143.2H42.1481V77.1259C42.1481 70.4585 47.4875 65.1125 54.1466 65.1125H138.136V89.1393H156.134ZM54.1466 77.1259V131.186H58.7061C62.0057 127.522 66.8051 125.179 72.1445 125.179C77.4838 125.179 82.2832 127.522 85.5828 131.186H126.138V77.1259H54.1466ZM96.1415 83.1326L117.139 104.156L96.1415 125.179V110.163H66.1452V98.1493H96.1415V83.1326Z" fill="#E6CCB2"/>
<path d="M213.627 108.12C213.627 166.456 166.396 213.741 108.14 213.741C49.8842 213.741 2.6532 166.456 2.6532 108.12C2.6532 49.785 49.8842 2.5 108.14 2.5C166.396 2.5 213.627 49.785 213.627 108.12Z" stroke="#E6CCB2" stroke-width="5"/>
</svg>
