<svg width="217" height="217" viewBox="0 0 217 217" fill="none" xmlns="http://www.w3.org/2000/svg">
<g clip-path="url(#clip0_463_76)">
<path d="M164.249 109.207C156.612 97.3345 146.717 87.5682 134.349 78.8815C121.981 70.1948 108.457 63.7948 95.7454 60.9553C93.3518 60.4105 90.7784 60.5659 90.2804 63.8318C89.8743 66.4839 77.1379 134.774 73.1397 159.514C73.0037 160.349 73.1055 161.206 73.4332 161.985C73.761 162.765 74.3015 163.436 74.9925 163.922C75.6836 164.407 76.4972 164.687 77.3397 164.729C78.1823 164.771 79.0197 164.574 79.7556 164.16L163.299 115.324C165.147 114.245 165.991 111.911 164.249 109.207V109.207Z" stroke="#E6CCB2" stroke-width="5" stroke-miterlimit="10"/>
<path d="M178.05 104.988C169.378 91.8035 156.874 78.1727 142.092 67.7904C127.309 57.4081 110.694 50.139 95.0102 46.4581C93.6201 46.1429 90.8807 45.7444 90.2342 47.8558L88.5735 54.9952C88.1723 57.5371 89.2481 58.2927 90.7201 59.3266C91.1324 59.6162 91.8696 59.7896 92.7487 60.0007C107.658 63.6664 121.762 70.0678 134.349 78.8815C147.424 88.0649 158.884 100.246 166.275 111.636C166.877 112.54 167.212 113.044 167.601 113.317C169.117 114.382 169.639 115.503 172.363 113.873L178.497 109.889C179.928 108.828 179.093 106.582 178.05 104.988Z" stroke="#E6CCB2" stroke-width="5" stroke-miterlimit="10"/>
<path d="M98.9601 98.1031C103.031 100.963 108.642 99.9701 111.493 95.8864C114.344 91.8028 113.354 86.1744 109.283 83.315C105.212 80.4556 99.6008 81.448 96.7501 85.5317C93.8995 89.6153 94.8889 95.2437 98.9601 98.1031Z" fill="#E6CCB2"/>
<path d="M125.865 122.51C129.936 125.369 135.548 124.377 138.398 120.293C141.249 116.209 140.259 110.581 136.188 107.722C132.117 104.862 126.506 105.855 123.655 109.938C120.805 114.022 121.794 119.65 125.865 122.51Z" fill="#E6CCB2"/>
<path d="M93.0568 138.034C97.1279 140.894 102.739 139.901 105.59 135.817C108.44 131.734 107.451 126.105 103.38 123.246C99.3087 120.387 93.6975 121.379 90.8468 125.463C87.9962 129.546 88.9856 135.175 93.0568 138.034Z" fill="#E6CCB2"/>
</g>
<path d="M214.347 108.318C214.347 166.767 167.112 214.136 108.86 214.136C50.6084 214.136 3.37311 166.767 3.37311 108.318C3.37311 49.8692 50.6084 2.5 108.86 2.5C167.112 2.5 214.347 49.8692 214.347 108.318Z" stroke="#E6CCB2" stroke-width="5"/>
<defs>
<clipPath id="clip0_463_76">
<rect width="144.128" height="144.279" fill="white" transform="matrix(0.818325 0.574755 -0.572398 0.819976 90.8621 15.2802)"/>
</clipPath>
</defs>
</svg>
